<svg width="720" height="720" viewBox="0 0 720 720" fill="none" xmlns="http://www.w3.org/2000/svg">
<g clip-path="url(#clip0_46_2)">
<rect width="720" height="720" rx="360" fill="white"/>
<path d="M300.776 189.5H329.576C336.776 189.5 342.776 192.2 347.576 197.6C352.976 202.4 355.676 208.4 355.676 215.6V244.4C355.676 251.6 352.976 257.9 347.576 263.3C342.776 268.1 336.776 270.5 329.576 270.5H300.776C293.576 270.5 287.276 268.1 281.876 263.3C277.076 257.9 274.676 251.6 274.676 244.4V215.6C274.676 208.4 277.076 202.4 281.876 197.6C287.276 192.2 293.576 189.5 300.776 189.5ZM390.776 189.5H419.576C426.776 189.5 432.776 192.2 437.576 197.6C442.976 202.4 445.676 208.4 445.676 215.6V244.4C445.676 251.6 442.976 257.9 437.576 263.3C432.776 268.1 426.776 270.5 419.576 270.5H390.776C383.576 270.5 377.276 268.1 371.876 263.3C367.076 257.9 364.676 251.6 364.676 244.4V215.6C364.676 208.4 367.076 202.4 371.876 197.6C377.276 192.2 383.576 189.5 390.776 189.5ZM210.776 279.5H239.576C246.776 279.5 252.776 282.2 257.576 287.6C262.976 292.4 265.676 298.4 265.676 305.6V334.4C265.676 341.6 262.976 347.9 257.576 353.3C252.776 358.1 246.776 360.5 239.576 360.5H210.776C203.576 360.5 197.276 358.1 191.876 353.3C187.076 347.9 184.676 341.6 184.676 334.4V305.6C184.676 298.4 187.076 292.4 191.876 287.6C197.276 282.2 203.576 279.5 210.776 279.5ZM300.776 279.5H329.576C336.776 279.5 342.776 282.2 347.576 287.6C352.976 292.4 355.676 298.4 355.676 305.6V334.4C355.676 341.6 352.976 347.9 347.576 353.3C342.776 358.1 336.776 360.5 329.576 360.5H300.776C293.576 360.5 287.276 358.1 281.876 353.3C277.076 347.9 274.676 341.6 274.676 334.4V305.6C274.676 298.4 277.076 292.4 281.876 287.6C287.276 282.2 293.576 279.5 300.776 279.5ZM390.776 279.5H419.576C426.776 279.5 432.776 282.2 437.576 287.6C442.976 292.4 445.676 298.4 445.676 305.6V334.4C445.676 341.6 442.976 347.9 437.576 353.3C432.776 358.1 426.776 360.5 419.576 360.5H390.776C383.576 360.5 377.276 358.1 371.876 353.3C367.076 347.9 364.676 341.6 364.676 334.4V305.6C364.676 298.4 367.076 292.4 371.876 287.6C377.276 282.2 383.576 279.5 390.776 279.5ZM480.776 279.5H509.576C516.776 279.5 522.776 282.2 527.576 287.6C532.976 292.4 535.676 298.4 535.676 305.6V334.4C535.676 341.6 532.976 347.9 527.576 353.3C522.776 358.1 516.776 360.5 509.576 360.5H480.776C473.576 360.5 467.276 358.1 461.876 353.3C457.076 347.9 454.676 341.6 454.676 334.4V305.6C454.676 298.4 457.076 292.4 461.876 287.6C467.276 282.2 473.576 279.5 480.776 279.5ZM210.776 369.5H239.576C246.776 369.5 252.776 372.2 257.576 377.6C262.976 382.4 265.676 388.4 265.676 395.6V424.4C265.676 431.6 262.976 437.9 257.576 443.3C252.776 448.1 246.776 450.5 239.576 450.5H210.776C203.576 450.5 197.276 448.1 191.876 443.3C187.076 437.9 184.676 431.6 184.676 424.4V395.6C184.676 388.4 187.076 382.4 191.876 377.6C197.276 372.2 203.576 369.5 210.776 369.5ZM300.776 369.5H329.576C336.776 369.5 342.776 372.2 347.576 377.6C352.976 382.4 355.676 388.4 355.676 395.6V424.4C355.676 431.6 352.976 437.9 347.576 443.3C342.776 448.1 336.776 450.5 329.576 450.5H300.776C293.576 450.5 287.276 448.1 281.876 443.3C277.076 437.9 274.676 431.6 274.676 424.4V395.6C274.676 388.4 277.076 382.4 281.876 377.6C287.276 372.2 293.576 369.5 300.776 369.5ZM390.776 369.5H419.576C426.776 369.5 432.776 372.2 437.576 377.6C442.976 382.4 445.676 388.4 445.676 395.6V424.4C445.676 431.6 442.976 437.9 437.576 443.3C432.776 448.1 426.776 450.5 419.576 450.5H390.776C383.576 450.5 377.276 448.1 371.876 443.3C367.076 437.9 364.676 431.6 364.676 424.4V395.6C364.676 388.4 367.076 382.4 371.876 377.6C377.276 372.2 383.576 369.5 390.776 369.5ZM480.776 369.5H509.576C516.776 369.5 522.776 372.2 527.576 377.6C532.976 382.4 535.676 388.4 535.676 395.6V424.4C535.676 431.6 532.976 437.9 527.576 443.3C522.776 448.1 516.776 450.5 509.576 450.5H480.776C473.576 450.5 467.276 448.1 461.876 443.3C457.076 437.9 454.676 431.6 454.676 424.4V395.6C454.676 388.4 457.076 382.4 461.876 377.6C467.276 372.2 473.576 369.5 480.776 369.5ZM300.776 459.5H329.576C336.776 459.5 342.776 462.2 347.576 467.6C352.976 472.4 355.676 478.4 355.676 485.6V514.4C355.676 521.6 352.976 527.9 347.576 533.3C342.776 538.1 336.776 540.5 329.576 540.5H300.776C293.576 540.5 287.276 538.1 281.876 533.3C277.076 527.9 274.676 521.6 274.676 514.4V485.6C274.676 478.4 277.076 472.4 281.876 467.6C287.276 462.2 293.576 459.5 300.776 459.5ZM390.776 459.5H419.576C426.776 459.5 432.776 462.2 437.576 467.6C442.976 472.4 445.676 478.4 445.676 485.6V514.4C445.676 521.6 442.976 527.9 437.576 533.3C432.776 538.1 426.776 540.5 419.576 540.5H390.776C383.576 540.5 377.276 538.1 371.876 533.3C367.076 527.9 364.676 521.6 364.676 514.4V485.6C364.676 478.4 367.076 472.4 371.876 467.6C377.276 462.2 383.576 459.5 390.776 459.5Z" fill="black"/>
</g>
<defs>
<clipPath id="clip0_46_2">
<rect width="720" height="720" rx="360" fill="white"/>
</clipPath>
</defs>
</svg>
