<svg width="55" height="17" viewBox="0 0 55 17" fill="none" xmlns="http://www.w3.org/2000/svg">
<path d="M0.696005 -9.53674e-07H1.464C1.656 -9.53674e-07 1.816 0.0719991 1.944 0.215999C2.08801 0.343999 2.16001 0.504 2.16001 0.696V1.464C2.16001 1.656 2.08801 1.824 1.944 1.968C1.816 2.096 1.656 2.16 1.464 2.16H0.696005C0.504005 2.16 0.336005 2.096 0.192005 1.968C0.0640049 1.824 4.89131e-06 1.656 4.89131e-06 1.464V0.696C4.89131e-06 0.504 0.0640049 0.343999 0.192005 0.215999C0.336005 0.0719991 0.504005 -9.53674e-07 0.696005 -9.53674e-07ZM3.096 -9.53674e-07H3.86401C4.05601 -9.53674e-07 4.216 0.0719991 4.344 0.215999C4.48801 0.343999 4.56001 0.504 4.56001 0.696V1.464C4.56001 1.656 4.48801 1.824 4.344 1.968C4.216 2.096 4.05601 2.16 3.86401 2.16H3.096C2.90401 2.16 2.73601 2.096 2.59201 1.968C2.464 1.824 2.4 1.656 2.4 1.464V0.696C2.4 0.504 2.464 0.343999 2.59201 0.215999C2.73601 0.0719991 2.90401 -9.53674e-07 3.096 -9.53674e-07ZM5.49601 -9.53674e-07H6.264C6.45601 -9.53674e-07 6.61601 0.0719991 6.74401 0.215999C6.88801 0.343999 6.96001 0.504 6.96001 0.696V1.464C6.96001 1.656 6.88801 1.824 6.74401 1.968C6.61601 2.096 6.45601 2.16 6.264 2.16H5.49601C5.30401 2.16 5.13601 2.096 4.99201 1.968C4.86401 1.824 4.80001 1.656 4.80001 1.464V0.696C4.80001 0.504 4.86401 0.343999 4.99201 0.215999C5.13601 0.0719991 5.30401 -9.53674e-07 5.49601 -9.53674e-07ZM7.89601 -9.53674e-07H8.66401C8.85601 -9.53674e-07 9.01601 0.0719991 9.14401 0.215999C9.28801 0.343999 9.36001 0.504 9.36001 0.696V1.464C9.36001 1.656 9.28801 1.824 9.14401 1.968C9.01601 2.096 8.85601 2.16 8.66401 2.16H7.89601C7.70401 2.16 7.53601 2.096 7.39201 1.968C7.26401 1.824 7.20001 1.656 7.20001 1.464V0.696C7.20001 0.504 7.26401 0.343999 7.39201 0.215999C7.53601 0.0719991 7.70401 -9.53674e-07 7.89601 -9.53674e-07ZM10.296 -9.53674e-07H11.064C11.256 -9.53674e-07 11.416 0.0719991 11.544 0.215999C11.688 0.343999 11.76 0.504 11.76 0.696V1.464C11.76 1.656 11.688 1.824 11.544 1.968C11.416 2.096 11.256 2.16 11.064 2.16H10.296C10.104 2.16 9.93601 2.096 9.79201 1.968C9.66401 1.824 9.60001 1.656 9.60001 1.464V0.696C9.60001 0.504 9.66401 0.343999 9.79201 0.215999C9.93601 0.0719991 10.104 -9.53674e-07 10.296 -9.53674e-07ZM5.49601 2.4H6.264C6.45601 2.4 6.61601 2.472 6.74401 2.616C6.88801 2.744 6.96001 2.904 6.96001 3.096V3.864C6.96001 4.056 6.88801 4.224 6.74401 4.368C6.61601 4.496 6.45601 4.56 6.264 4.56H5.49601C5.30401 4.56 5.13601 4.496 4.99201 4.368C4.86401 4.224 4.80001 4.056 4.80001 3.864V3.096C4.80001 2.904 4.86401 2.744 4.99201 2.616C5.13601 2.472 5.30401 2.4 5.49601 2.4ZM5.49601 4.8H6.264C6.45601 4.8 6.61601 4.872 6.74401 5.016C6.88801 5.144 6.96001 5.304 6.96001 5.496V6.264C6.96001 6.456 6.88801 6.624 6.74401 6.768C6.61601 6.896 6.45601 6.96 6.264 6.96H5.49601C5.30401 6.96 5.13601 6.896 4.99201 6.768C4.86401 6.624 4.80001 6.456 4.80001 6.264V5.496C4.80001 5.304 4.86401 5.144 4.99201 5.016C5.13601 4.872 5.30401 4.8 5.49601 4.8ZM5.49601 7.2H6.264C6.45601 7.2 6.61601 7.272 6.74401 7.416C6.88801 7.544 6.96001 7.704 6.96001 7.896V8.664C6.96001 8.856 6.88801 9.024 6.74401 9.168C6.61601 9.296 6.45601 9.36 6.264 9.36H5.49601C5.30401 9.36 5.13601 9.296 4.99201 9.168C4.86401 9.024 4.80001 8.856 4.80001 8.664V7.896C4.80001 7.704 4.86401 7.544 4.99201 7.416C5.13601 7.272 5.30401 7.2 5.49601 7.2ZM5.49601 9.6H6.264C6.45601 9.6 6.61601 9.672 6.74401 9.816C6.88801 9.944 6.96001 10.104 6.96001 10.296V11.064C6.96001 11.256 6.88801 11.424 6.74401 11.568C6.61601 11.696 6.45601 11.76 6.264 11.76H5.49601C5.30401 11.76 5.13601 11.696 4.99201 11.568C4.86401 11.424 4.80001 11.256 4.80001 11.064V10.296C4.80001 10.104 4.86401 9.944 4.99201 9.816C5.13601 9.672 5.30401 9.6 5.49601 9.6ZM5.49601 12H6.264C6.45601 12 6.61601 12.072 6.74401 12.216C6.88801 12.344 6.96001 12.504 6.96001 12.696V13.464C6.96001 13.656 6.88801 13.824 6.74401 13.968C6.61601 14.096 6.45601 14.16 6.264 14.16H5.49601C5.30401 14.16 5.13601 14.096 4.99201 13.968C4.86401 13.824 4.80001 13.656 4.80001 13.464V12.696C4.80001 12.504 4.86401 12.344 4.99201 12.216C5.13601 12.072 5.30401 12 5.49601 12ZM5.49601 14.4H6.264C6.45601 14.4 6.61601 14.472 6.74401 14.616C6.88801 14.744 6.96001 14.904 6.96001 15.096V15.864C6.96001 16.056 6.88801 16.224 6.74401 16.368C6.61601 16.496 6.45601 16.56 6.264 16.56H5.49601C5.30401 16.56 5.13601 16.496 4.99201 16.368C4.86401 16.224 4.80001 16.056 4.80001 15.864V15.096C4.80001 14.904 4.86401 14.744 4.99201 14.616C5.13601 14.472 5.30401 14.4 5.49601 14.4ZM15.0866 -9.53674e-07H15.8546C16.0466 -9.53674e-07 16.2066 0.0719991 16.3346 0.215999C16.4786 0.343999 16.5506 0.504 16.5506 0.696V1.464C16.5506 1.656 16.4786 1.824 16.3346 1.968C16.2066 2.096 16.0466 2.16 15.8546 2.16H15.0866C14.8946 2.16 14.7266 2.096 14.5826 1.968C14.4546 1.824 14.3906 1.656 14.3906 1.464V0.696C14.3906 0.504 14.4546 0.343999 14.5826 0.215999C14.7266 0.0719991 14.8946 -9.53674e-07 15.0866 -9.53674e-07ZM24.6866 -9.53674e-07H25.4546C25.6466 -9.53674e-07 25.8066 0.0719991 25.9346 0.215999C26.0786 0.343999 26.1506 0.504 26.1506 0.696V1.464C26.1506 1.656 26.0786 1.824 25.9346 1.968C25.8066 2.096 25.6466 2.16 25.4546 2.16H24.6866C24.4946 2.16 24.3266 2.096 24.1826 1.968C24.0546 1.824 23.9906 1.656 23.9906 1.464V0.696C23.9906 0.504 24.0546 0.343999 24.1826 0.215999C24.3266 0.0719991 24.4946 -9.53674e-07 24.6866 -9.53674e-07ZM15.0866 2.4H15.8546C16.0466 2.4 16.2066 2.472 16.3346 2.616C16.4786 2.744 16.5506 2.904 16.5506 3.096V3.864C16.5506 4.056 16.4786 4.224 16.3346 4.368C16.2066 4.496 16.0466 4.56 15.8546 4.56H15.0866C14.8946 4.56 14.7266 4.496 14.5826 4.368C14.4546 4.224 14.3906 4.056 14.3906 3.864V3.096C14.3906 2.904 14.4546 2.744 14.5826 2.616C14.7266 2.472 14.8946 2.4 15.0866 2.4ZM24.6866 2.4H25.4546C25.6466 2.4 25.8066 2.472 25.9346 2.616C26.0786 2.744 26.1506 2.904 26.1506 3.096V3.864C26.1506 4.056 26.0786 4.224 25.9346 4.368C25.8066 4.496 25.6466 4.56 25.4546 4.56H24.6866C24.4946 4.56 24.3266 4.496 24.1826 4.368C24.0546 4.224 23.9906 4.056 23.9906 3.864V3.096C23.9906 2.904 24.0546 2.744 24.1826 2.616C24.3266 2.472 24.4946 2.4 24.6866 2.4ZM15.0866 4.8H15.8546C16.0466 4.8 16.2066 4.872 16.3346 5.016C16.4786 5.144 16.5506 5.304 16.5506 5.496V6.264C16.5506 6.456 16.4786 6.624 16.3346 6.768C16.2066 6.896 16.0466 6.96 15.8546 6.96H15.0866C14.8946 6.96 14.7266 6.896 14.5826 6.768C14.4546 6.624 14.3906 6.456 14.3906 6.264V5.496C14.3906 5.304 14.4546 5.144 14.5826 5.016C14.7266 4.872 14.8946 4.8 15.0866 4.8ZM17.4866 4.8H18.2546C18.4466 4.8 18.6066 4.872 18.7346 5.016C18.8786 5.144 18.9506 5.304 18.9506 5.496V6.264C18.9506 6.456 18.8786 6.624 18.7346 6.768C18.6066 6.896 18.4466 6.96 18.2546 6.96H17.4866C17.2946 6.96 17.1266 6.896 16.9826 6.768C16.8546 6.624 16.7906 6.456 16.7906 6.264V5.496C16.7906 5.304 16.8546 5.144 16.9826 5.016C17.1266 4.872 17.2946 4.8 17.4866 4.8ZM24.6866 4.8H25.4546C25.6466 4.8 25.8066 4.872 25.9346 5.016C26.0786 5.144 26.1506 5.304 26.1506 5.496V6.264C26.1506 6.456 26.0786 6.624 25.9346 6.768C25.8066 6.896 25.6466 6.96 25.4546 6.96H24.6866C24.4946 6.96 24.3266 6.896 24.1826 6.768C24.0546 6.624 23.9906 6.456 23.9906 6.264V5.496C23.9906 5.304 24.0546 5.144 24.1826 5.016C24.3266 4.872 24.4946 4.8 24.6866 4.8ZM15.0866 7.2H15.8546C16.0466 7.2 16.2066 7.272 16.3346 7.416C16.4786 7.544 16.5506 7.704 16.5506 7.896V8.664C16.5506 8.856 16.4786 9.024 16.3346 9.168C16.2066 9.296 16.0466 9.36 15.8546 9.36H15.0866C14.8946 9.36 14.7266 9.296 14.5826 9.168C14.4546 9.024 14.3906 8.856 14.3906 8.664V7.896C14.3906 7.704 14.4546 7.544 14.5826 7.416C14.7266 7.272 14.8946 7.2 15.0866 7.2ZM19.8866 7.2H20.6546C20.8466 7.2 21.0066 7.272 21.1346 7.416C21.2786 7.544 21.3506 7.704 21.3506 7.896V8.664C21.3506 8.856 21.2786 9.024 21.1346 9.168C21.0066 9.296 20.8466 9.36 20.6546 9.36H19.8866C19.6946 9.36 19.5266 9.296 19.3826 9.168C19.2546 9.024 19.1906 8.856 19.1906 8.664V7.896C19.1906 7.704 19.2546 7.544 19.3826 7.416C19.5266 7.272 19.6946 7.2 19.8866 7.2ZM24.6866 7.2H25.4546C25.6466 7.2 25.8066 7.272 25.9346 7.416C26.0786 7.544 26.1506 7.704 26.1506 7.896V8.664C26.1506 8.856 26.0786 9.024 25.9346 9.168C25.8066 9.296 25.6466 9.36 25.4546 9.36H24.6866C24.4946 9.36 24.3266 9.296 24.1826 9.168C24.0546 9.024 23.9906 8.856 23.9906 8.664V7.896C23.9906 7.704 24.0546 7.544 24.1826 7.416C24.3266 7.272 24.4946 7.2 24.6866 7.2ZM15.0866 9.6H15.8546C16.0466 9.6 16.2066 9.672 16.3346 9.816C16.4786 9.944 16.5506 10.104 16.5506 10.296V11.064C16.5506 11.256 16.4786 11.424 16.3346 11.568C16.2066 11.696 16.0466 11.76 15.8546 11.76H15.0866C14.8946 11.76 14.7266 11.696 14.5826 11.568C14.4546 11.424 14.3906 11.256 14.3906 11.064V10.296C14.3906 10.104 14.4546 9.944 14.5826 9.816C14.7266 9.672 14.8946 9.6 15.0866 9.6ZM22.2866 9.6H23.0546C23.2466 9.6 23.4066 9.672 23.5346 9.816C23.6786 9.944 23.7506 10.104 23.7506 10.296V11.064C23.7506 11.256 23.6786 11.424 23.5346 11.568C23.4066 11.696 23.2466 11.76 23.0546 11.76H22.2866C22.0946 11.76 21.9266 11.696 21.7826 11.568C21.6546 11.424 21.5906 11.256 21.5906 11.064V10.296C21.5906 10.104 21.6546 9.944 21.7826 9.816C21.9266 9.672 22.0946 9.6 22.2866 9.6ZM24.6866 9.6H25.4546C25.6466 9.6 25.8066 9.672 25.9346 9.816C26.0786 9.944 26.1506 10.104 26.1506 10.296V11.064C26.1506 11.256 26.0786 11.424 25.9346 11.568C25.8066 11.696 25.6466 11.76 25.4546 11.76H24.6866C24.4946 11.76 24.3266 11.696 24.1826 11.568C24.0546 11.424 23.9906 11.256 23.9906 11.064V10.296C23.9906 10.104 24.0546 9.944 24.1826 9.816C24.3266 9.672 24.4946 9.6 24.6866 9.6ZM15.0866 12H15.8546C16.0466 12 16.2066 12.072 16.3346 12.216C16.4786 12.344 16.5506 12.504 16.5506 12.696V13.464C16.5506 13.656 16.4786 13.824 16.3346 13.968C16.2066 14.096 16.0466 14.16 15.8546 14.16H15.0866C14.8946 14.16 14.7266 14.096 14.5826 13.968C14.4546 13.824 14.3906 13.656 14.3906 13.464V12.696C14.3906 12.504 14.4546 12.344 14.5826 12.216C14.7266 12.072 14.8946 12 15.0866 12ZM24.6866 12H25.4546C25.6466 12 25.8066 12.072 25.9346 12.216C26.0786 12.344 26.1506 12.504 26.1506 12.696V13.464C26.1506 13.656 26.0786 13.824 25.9346 13.968C25.8066 14.096 25.6466 14.16 25.4546 14.16H24.6866C24.4946 14.16 24.3266 14.096 24.1826 13.968C24.0546 13.824 23.9906 13.656 23.9906 13.464V12.696C23.9906 12.504 24.0546 12.344 24.1826 12.216C24.3266 12.072 24.4946 12 24.6866 12ZM15.0866 14.4H15.8546C16.0466 14.4 16.2066 14.472 16.3346 14.616C16.4786 14.744 16.5506 14.904 16.5506 15.096V15.864C16.5506 16.056 16.4786 16.224 16.3346 16.368C16.2066 16.496 16.0466 16.56 15.8546 16.56H15.0866C14.8946 16.56 14.7266 16.496 14.5826 16.368C14.4546 16.224 14.3906 16.056 14.3906 15.864V15.096C14.3906 14.904 14.4546 14.744 14.5826 14.616C14.7266 14.472 14.8946 14.4 15.0866 14.4ZM24.6866 14.4H25.4546C25.6466 14.4 25.8066 14.472 25.9346 14.616C26.0786 14.744 26.1506 14.904 26.1506 15.096V15.864C26.1506 16.056 26.0786 16.224 25.9346 16.368C25.8066 16.496 25.6466 16.56 25.4546 16.56H24.6866C24.4946 16.56 24.3266 16.496 24.1826 16.368C24.0546 16.224 23.9906 16.056 23.9906 15.864V15.096C23.9906 14.904 24.0546 14.744 24.1826 14.616C24.3266 14.472 24.4946 14.4 24.6866 14.4ZM31.8773 -9.53674e-07H32.6453C32.8373 -9.53674e-07 32.9973 0.0719991 33.1253 0.215999C33.2693 0.343999 33.3413 0.504 33.3413 0.696V1.464C33.3413 1.656 33.2693 1.824 33.1253 1.968C32.9973 2.096 32.8373 2.16 32.6453 2.16H31.8773C31.6853 2.16 31.5173 2.096 31.3733 1.968C31.2453 1.824 31.1813 1.656 31.1813 1.464V0.696C31.1813 0.504 31.2453 0.343999 31.3733 0.215999C31.5173 0.0719991 31.6853 -9.53674e-07 31.8773 -9.53674e-07ZM34.2773 -9.53674e-07H35.0453C35.2373 -9.53674e-07 35.3973 0.0719991 35.5253 0.215999C35.6693 0.343999 35.7413 0.504 35.7413 0.696V1.464C35.7413 1.656 35.6693 1.824 35.5253 1.968C35.3973 2.096 35.2373 2.16 35.0453 2.16H34.2773C34.0853 2.16 33.9173 2.096 33.7733 1.968C33.6453 1.824 33.5813 1.656 33.5813 1.464V0.696C33.5813 0.504 33.6453 0.343999 33.7733 0.215999C33.9173 0.0719991 34.0853 -9.53674e-07 34.2773 -9.53674e-07ZM36.6773 -9.53674e-07H37.4453C37.6373 -9.53674e-07 37.7973 0.0719991 37.9253 0.215999C38.0693 0.343999 38.1413 0.504 38.1413 0.696V1.464C38.1413 1.656 38.0693 1.824 37.9253 1.968C37.7973 2.096 37.6373 2.16 37.4453 2.16H36.6773C36.4853 2.16 36.3173 2.096 36.1733 1.968C36.0453 1.824 35.9813 1.656 35.9813 1.464V0.696C35.9813 0.504 36.0453 0.343999 36.1733 0.215999C36.3173 0.0719991 36.4853 -9.53674e-07 36.6773 -9.53674e-07ZM29.4773 2.4H30.2453C30.4373 2.4 30.5973 2.472 30.7253 2.616C30.8693 2.744 30.9413 2.904 30.9413 3.096V3.864C30.9413 4.056 30.8693 4.224 30.7253 4.368C30.5973 4.496 30.4373 4.56 30.2453 4.56H29.4773C29.2853 4.56 29.1173 4.496 28.9733 4.368C28.8453 4.224 28.7813 4.056 28.7813 3.864V3.096C28.7813 2.904 28.8453 2.744 28.9733 2.616C29.1173 2.472 29.2853 2.4 29.4773 2.4ZM39.0773 2.4H39.8453C40.0373 2.4 40.1973 2.472 40.3253 2.616C40.4693 2.744 40.5413 2.904 40.5413 3.096V3.864C40.5413 4.056 40.4693 4.224 40.3253 4.368C40.1973 4.496 40.0373 4.56 39.8453 4.56H39.0773C38.8853 4.56 38.7173 4.496 38.5733 4.368C38.4453 4.224 38.3813 4.056 38.3813 3.864V3.096C38.3813 2.904 38.4453 2.744 38.5733 2.616C38.7173 2.472 38.8853 2.4 39.0773 2.4ZM29.4773 4.8H30.2453C30.4373 4.8 30.5973 4.872 30.7253 5.016C30.8693 5.144 30.9413 5.304 30.9413 5.496V6.264C30.9413 6.456 30.8693 6.624 30.7253 6.768C30.5973 6.896 30.4373 6.96 30.2453 6.96H29.4773C29.2853 6.96 29.1173 6.896 28.9733 6.768C28.8453 6.624 28.7813 6.456 28.7813 6.264V5.496C28.7813 5.304 28.8453 5.144 28.9733 5.016C29.1173 4.872 29.2853 4.8 29.4773 4.8ZM31.8773 7.2H32.6453C32.8373 7.2 32.9973 7.272 33.1253 7.416C33.2693 7.544 33.3413 7.704 33.3413 7.896V8.664C33.3413 8.856 33.2693 9.024 33.1253 9.168C32.9973 9.296 32.8373 9.36 32.6453 9.36H31.8773C31.6853 9.36 31.5173 9.296 31.3733 9.168C31.2453 9.024 31.1813 8.856 31.1813 8.664V7.896C31.1813 7.704 31.2453 7.544 31.3733 7.416C31.5173 7.272 31.6853 7.2 31.8773 7.2ZM34.2773 7.2H35.0453C35.2373 7.2 35.3973 7.272 35.5253 7.416C35.6693 7.544 35.7413 7.704 35.7413 7.896V8.664C35.7413 8.856 35.6693 9.024 35.5253 9.168C35.3973 9.296 35.2373 9.36 35.0453 9.36H34.2773C34.0853 9.36 33.9173 9.296 33.7733 9.168C33.6453 9.024 33.5813 8.856 33.5813 8.664V7.896C33.5813 7.704 33.6453 7.544 33.7733 7.416C33.9173 7.272 34.0853 7.2 34.2773 7.2ZM36.6773 7.2H37.4453C37.6373 7.2 37.7973 7.272 37.9253 7.416C38.0693 7.544 38.1413 7.704 38.1413 7.896V8.664C38.1413 8.856 38.0693 9.024 37.9253 9.168C37.7973 9.296 37.6373 9.36 37.4453 9.36H36.6773C36.4853 9.36 36.3173 9.296 36.1733 9.168C36.0453 9.024 35.9813 8.856 35.9813 8.664V7.896C35.9813 7.704 36.0453 7.544 36.1733 7.416C36.3173 7.272 36.4853 7.2 36.6773 7.2ZM39.0773 9.6H39.8453C40.0373 9.6 40.1973 9.672 40.3253 9.816C40.4693 9.944 40.5413 10.104 40.5413 10.296V11.064C40.5413 11.256 40.4693 11.424 40.3253 11.568C40.1973 11.696 40.0373 11.76 39.8453 11.76H39.0773C38.8853 11.76 38.7173 11.696 38.5733 11.568C38.4453 11.424 38.3813 11.256 38.3813 11.064V10.296C38.3813 10.104 38.4453 9.944 38.5733 9.816C38.7173 9.672 38.8853 9.6 39.0773 9.6ZM29.4773 12H30.2453C30.4373 12 30.5973 12.072 30.7253 12.216C30.8693 12.344 30.9413 12.504 30.9413 12.696V13.464C30.9413 13.656 30.8693 13.824 30.7253 13.968C30.5973 14.096 30.4373 14.16 30.2453 14.16H29.4773C29.2853 14.16 29.1173 14.096 28.9733 13.968C28.8453 13.824 28.7813 13.656 28.7813 13.464V12.696C28.7813 12.504 28.8453 12.344 28.9733 12.216C29.1173 12.072 29.2853 12 29.4773 12ZM39.0773 12H39.8453C40.0373 12 40.1973 12.072 40.3253 12.216C40.4693 12.344 40.5413 12.504 40.5413 12.696V13.464C40.5413 13.656 40.4693 13.824 40.3253 13.968C40.1973 14.096 40.0373 14.16 39.8453 14.16H39.0773C38.8853 14.16 38.7173 14.096 38.5733 13.968C38.4453 13.824 38.3813 13.656 38.3813 13.464V12.696C38.3813 12.504 38.4453 12.344 38.5733 12.216C38.7173 12.072 38.8853 12 39.0773 12ZM31.8773 14.4H32.6453C32.8373 14.4 32.9973 14.472 33.1253 14.616C33.2693 14.744 33.3413 14.904 33.3413 15.096V15.864C33.3413 16.056 33.2693 16.224 33.1253 16.368C32.9973 16.496 32.8373 16.56 32.6453 16.56H31.8773C31.6853 16.56 31.5173 16.496 31.3733 16.368C31.2453 16.224 31.1813 16.056 31.1813 15.864V15.096C31.1813 14.904 31.2453 14.744 31.3733 14.616C31.5173 14.472 31.6853 14.4 31.8773 14.4ZM34.2773 14.4H35.0453C35.2373 14.4 35.3973 14.472 35.5253 14.616C35.6693 14.744 35.7413 14.904 35.7413 15.096V15.864C35.7413 16.056 35.6693 16.224 35.5253 16.368C35.3973 16.496 35.2373 16.56 35.0453 16.56H34.2773C34.0853 16.56 33.9173 16.496 33.7733 16.368C33.6453 16.224 33.5813 16.056 33.5813 15.864V15.096C33.5813 14.904 33.6453 14.744 33.7733 14.616C33.9173 14.472 34.0853 14.4 34.2773 14.4ZM36.6773 14.4H37.4453C37.6373 14.4 37.7973 14.472 37.9253 14.616C38.0693 14.744 38.1413 14.904 38.1413 15.096V15.864C38.1413 16.056 38.0693 16.224 37.9253 16.368C37.7973 16.496 37.6373 16.56 37.4453 16.56H36.6773C36.4853 16.56 36.3173 16.496 36.1733 16.368C36.0453 16.224 35.9813 16.056 35.9813 15.864V15.096C35.9813 14.904 36.0453 14.744 36.1733 14.616C36.3173 14.472 36.4853 14.4 36.6773 14.4ZM48.6679 -9.53674e-07H49.4359C49.6279 -9.53674e-07 49.7879 0.0719991 49.9159 0.215999C50.0599 0.343999 50.1319 0.504 50.1319 0.696V1.464C50.1319 1.656 50.0599 1.824 49.9159 1.968C49.7879 2.096 49.6279 2.16 49.4359 2.16H48.6679C48.4759 2.16 48.3079 2.096 48.1639 1.968C48.0359 1.824 47.9719 1.656 47.9719 1.464V0.696C47.9719 0.504 48.0359 0.343999 48.1639 0.215999C48.3079 0.0719991 48.4759 -9.53674e-07 48.6679 -9.53674e-07ZM46.2679 2.4H47.0359C47.2279 2.4 47.3879 2.472 47.5159 2.616C47.6599 2.744 47.7319 2.904 47.7319 3.096V3.864C47.7319 4.056 47.6599 4.224 47.5159 4.368C47.3879 4.496 47.2279 4.56 47.0359 4.56H46.2679C46.0759 4.56 45.9079 4.496 45.7639 4.368C45.6359 4.224 45.5719 4.056 45.5719 3.864V3.096C45.5719 2.904 45.6359 2.744 45.7639 2.616C45.9079 2.472 46.0759 2.4 46.2679 2.4ZM51.0679 2.4H51.8359C52.0279 2.4 52.1879 2.472 52.3159 2.616C52.4599 2.744 52.5319 2.904 52.5319 3.096V3.864C52.5319 4.056 52.4599 4.224 52.3159 4.368C52.1879 4.496 52.0279 4.56 51.8359 4.56H51.0679C50.8759 4.56 50.7079 4.496 50.5639 4.368C50.4359 4.224 50.3719 4.056 50.3719 3.864V3.096C50.3719 2.904 50.4359 2.744 50.5639 2.616C50.7079 2.472 50.8759 2.4 51.0679 2.4ZM43.8679 4.8H44.6359C44.8279 4.8 44.9879 4.872 45.1159 5.016C45.2599 5.144 45.3319 5.304 45.3319 5.496V6.264C45.3319 6.456 45.2599 6.624 45.1159 6.768C44.9879 6.896 44.8279 6.96 44.6359 6.96H43.8679C43.6759 6.96 43.5079 6.896 43.3639 6.768C43.2359 6.624 43.1719 6.456 43.1719 6.264V5.496C43.1719 5.304 43.2359 5.144 43.3639 5.016C43.5079 4.872 43.6759 4.8 43.8679 4.8ZM53.4679 4.8H54.2359C54.4279 4.8 54.5879 4.872 54.7159 5.016C54.8599 5.144 54.9319 5.304 54.9319 5.496V6.264C54.9319 6.456 54.8599 6.624 54.7159 6.768C54.5879 6.896 54.4279 6.96 54.2359 6.96H53.4679C53.2759 6.96 53.1079 6.896 52.9639 6.768C52.8359 6.624 52.7719 6.456 52.7719 6.264V5.496C52.7719 5.304 52.8359 5.144 52.9639 5.016C53.1079 4.872 53.2759 4.8 53.4679 4.8ZM43.8679 7.2H44.6359C44.8279 7.2 44.9879 7.272 45.1159 7.416C45.2599 7.544 45.3319 7.704 45.3319 7.896V8.664C45.3319 8.856 45.2599 9.024 45.1159 9.168C44.9879 9.296 44.8279 9.36 44.6359 9.36H43.8679C43.6759 9.36 43.5079 9.296 43.3639 9.168C43.2359 9.024 43.1719 8.856 43.1719 8.664V7.896C43.1719 7.704 43.2359 7.544 43.3639 7.416C43.5079 7.272 43.6759 7.2 43.8679 7.2ZM53.4679 7.2H54.2359C54.4279 7.2 54.5879 7.272 54.7159 7.416C54.8599 7.544 54.9319 7.704 54.9319 7.896V8.664C54.9319 8.856 54.8599 9.024 54.7159 9.168C54.5879 9.296 54.4279 9.36 54.2359 9.36H53.4679C53.2759 9.36 53.1079 9.296 52.9639 9.168C52.8359 9.024 52.7719 8.856 52.7719 8.664V7.896C52.7719 7.704 52.8359 7.544 52.9639 7.416C53.1079 7.272 53.2759 7.2 53.4679 7.2ZM43.8679 9.6H44.6359C44.8279 9.6 44.9879 9.672 45.1159 9.816C45.2599 9.944 45.3319 10.104 45.3319 10.296V11.064C45.3319 11.256 45.2599 11.424 45.1159 11.568C44.9879 11.696 44.8279 11.76 44.6359 11.76H43.8679C43.6759 11.76 43.5079 11.696 43.3639 11.568C43.2359 11.424 43.1719 11.256 43.1719 11.064V10.296C43.1719 10.104 43.2359 9.944 43.3639 9.816C43.5079 9.672 43.6759 9.6 43.8679 9.6ZM46.2679 9.6H47.0359C47.2279 9.6 47.3879 9.672 47.5159 9.816C47.6599 9.944 47.7319 10.104 47.7319 10.296V11.064C47.7319 11.256 47.6599 11.424 47.5159 11.568C47.3879 11.696 47.2279 11.76 47.0359 11.76H46.2679C46.0759 11.76 45.9079 11.696 45.7639 11.568C45.6359 11.424 45.5719 11.256 45.5719 11.064V10.296C45.5719 10.104 45.6359 9.944 45.7639 9.816C45.9079 9.672 46.0759 9.6 46.2679 9.6ZM48.6679 9.6H49.4359C49.6279 9.6 49.7879 9.672 49.9159 9.816C50.0599 9.944 50.1319 10.104 50.1319 10.296V11.064C50.1319 11.256 50.0599 11.424 49.9159 11.568C49.7879 11.696 49.6279 11.76 49.4359 11.76H48.6679C48.4759 11.76 48.3079 11.696 48.1639 11.568C48.0359 11.424 47.9719 11.256 47.9719 11.064V10.296C47.9719 10.104 48.0359 9.944 48.1639 9.816C48.3079 9.672 48.4759 9.6 48.6679 9.6ZM51.0679 9.6H51.8359C52.0279 9.6 52.1879 9.672 52.3159 9.816C52.4599 9.944 52.5319 10.104 52.5319 10.296V11.064C52.5319 11.256 52.4599 11.424 52.3159 11.568C52.1879 11.696 52.0279 11.76 51.8359 11.76H51.0679C50.8759 11.76 50.7079 11.696 50.5639 11.568C50.4359 11.424 50.3719 11.256 50.3719 11.064V10.296C50.3719 10.104 50.4359 9.944 50.5639 9.816C50.7079 9.672 50.8759 9.6 51.0679 9.6ZM53.4679 9.6H54.2359C54.4279 9.6 54.5879 9.672 54.7159 9.816C54.8599 9.944 54.9319 10.104 54.9319 10.296V11.064C54.9319 11.256 54.8599 11.424 54.7159 11.568C54.5879 11.696 54.4279 11.76 54.2359 11.76H53.4679C53.2759 11.76 53.1079 11.696 52.9639 11.568C52.8359 11.424 52.7719 11.256 52.7719 11.064V10.296C52.7719 10.104 52.8359 9.944 52.9639 9.816C53.1079 9.672 53.2759 9.6 53.4679 9.6ZM43.8679 12H44.6359C44.8279 12 44.9879 12.072 45.1159 12.216C45.2599 12.344 45.3319 12.504 45.3319 12.696V13.464C45.3319 13.656 45.2599 13.824 45.1159 13.968C44.9879 14.096 44.8279 14.16 44.6359 14.16H43.8679C43.6759 14.16 43.5079 14.096 43.3639 13.968C43.2359 13.824 43.1719 13.656 43.1719 13.464V12.696C43.1719 12.504 43.2359 12.344 43.3639 12.216C43.5079 12.072 43.6759 12 43.8679 12ZM53.4679 12H54.2359C54.4279 12 54.5879 12.072 54.7159 12.216C54.8599 12.344 54.9319 12.504 54.9319 12.696V13.464C54.9319 13.656 54.8599 13.824 54.7159 13.968C54.5879 14.096 54.4279 14.16 54.2359 14.16H53.4679C53.2759 14.16 53.1079 14.096 52.9639 13.968C52.8359 13.824 52.7719 13.656 52.7719 13.464V12.696C52.7719 12.504 52.8359 12.344 52.9639 12.216C53.1079 12.072 53.2759 12 53.4679 12ZM43.8679 14.4H44.6359C44.8279 14.4 44.9879 14.472 45.1159 14.616C45.2599 14.744 45.3319 14.904 45.3319 15.096V15.864C45.3319 16.056 45.2599 16.224 45.1159 16.368C44.9879 16.496 44.8279 16.56 44.6359 16.56H43.8679C43.6759 16.56 43.5079 16.496 43.3639 16.368C43.2359 16.224 43.1719 16.056 43.1719 15.864V15.096C43.1719 14.904 43.2359 14.744 43.3639 14.616C43.5079 14.472 43.6759 14.4 43.8679 14.4ZM53.4679 14.4H54.2359C54.4279 14.4 54.5879 14.472 54.7159 14.616C54.8599 14.744 54.9319 14.904 54.9319 15.096V15.864C54.9319 16.056 54.8599 16.224 54.7159 16.368C54.5879 16.496 54.4279 16.56 54.2359 16.56H53.4679C53.2759 16.56 53.1079 16.496 52.9639 16.368C52.8359 16.224 52.7719 16.056 52.7719 15.864V15.096C52.7719 14.904 52.8359 14.744 52.9639 14.616C53.1079 14.472 53.2759 14.4 53.4679 14.4Z" fill="black"/>
</svg>
